<?xml version="1.0" encoding="utf-8"?>
<!-- Generator: Adobe Illustrator 16.0.0, SVG Export Plug-In . SVG Version: 6.00 Build 0)  -->
<!DOCTYPE svg PUBLIC "-//W3C//DTD SVG 1.1//EN" "http://www.w3.org/Graphics/SVG/1.1/DTD/svg11.dtd">
<svg version="1.1" id="Layer_1" xmlns="http://www.w3.org/2000/svg" xmlns:xlink="http://www.w3.org/1999/xlink" x="0px" y="0px"
	 width="1080px" height="1080px" viewBox="0 0 1080 1080" enable-background="new 0 0 1080 1080" xml:space="preserve">
<g>
	<g>
		<g>
			<path fill-rule="evenodd" clip-rule="evenodd" fill="#02004C" d="M546.874,587.845L546.874,587.845
				c0-0.15-0.407-0.301-0.409-0.449c-0.012-1.099-0.465-2.193-0.465-3.318V584c0,0,1.001,0,1,0c-2.325,0-4.654,0.036-6.98,0.036
				c-2.406-0.002-4.811-0.036-7.215-0.036h-0.033c0.003,1-0.771,3.444-0.771,5.145v0.036c0-0.012,0.417-0.023,0.439-0.036
				c1.7-0.955,3.444-1.592,5.05-1.897c1.205-1.219,3.213-1.23,4.479-0.023c0.023,0.005,0.094,0.008,0.118,0.014
				c0.067,0.016-0.296,0.029-0.221,0.045c1.521,0.318,2.134,0.955,4.134,1.859v-0.033c0-0.014,0.449-0.027,0.449-0.041
				c0.021-0.215,0.276-0.427,0.303-0.639c0.019-0.15,0.146-0.299,0.156-0.446c0-0.011-0.039-0.021-0.039-0.032
				C546.871,587.917,546.528,587.882,546.874,587.845z"/>
			<path fill-rule="evenodd" clip-rule="evenodd" fill="#02004C" d="M621.052,505.413c-0.67-2.824-3.034-5.694-5.399-7.559
				c-0.929-0.733-1.912-1.406-2.929-2.035c-6.588-0.509-13.164-0.95-19.727-1.323c-7.381-0.421-14.748-0.753-22.109-0.999
				c-4.639-0.155-9.275-0.276-13.912-0.361c8.719,5.613,14.496,15.412,14.488,26.543c-0.008,14.884-10.348,27.368-24.226,30.658
				c0-4.637-0.061-9.276-0.089-13.913c-0.008-1.111,0.326-1.736,1.246-2.337c4.875-3.179,7.133-7.802,7.398-13.82
				c-1.967-0.053-3.746-0.133-5.508-0.145c-4.631-0.036-9.263-0.077-13.894-0.041c-1.539,0.012-2.139-0.586-2.113-2.124
				c0.048-2.801-0.018-5.604-0.056-8.404c-0.014-0.906-0.095-1.81-0.176-3.288c-1.492,0.822-2.784,1.332-3.843,2.146
				c-8.436,6.479-7.865,19.784,1.107,25.52c1.126,0.719,1.426,1.491,1.426,2.754c0,4.558,0.004,9.113,0.009,13.67
				c-13.999-3.271-24.39-15.863-24.322-30.896c0.05-11.045,5.826-20.751,14.51-26.326c-4.64,0.084-9.283,0.206-13.931,0.362
				c-7.487,0.25-14.987,0.594-22.503,1.03c-6.316,0.364-12.646,0.795-18.989,1.293c-1.085,0.619-2.17,1.237-3.264,1.841
				c-3.16,1.746-5.04,4.366-5.666,7.938c-1.643,9.333-1.625,18.655-0.014,27.992c0.102,0.586,0.234,1.146,0.399,1.682
				c0.851,1.237,1.575,2.537,2.138,3.883c0,0.002,0,0.002,0.002,0.002c0.896,1.033,2.011,1.91,3.344,2.645
				c4.271,2.35,8.58,4.638,12.749,7.154c1.416,0.854,2.536,2.254,3.662,3.52c3.608,4.051,2.123,8.979,2.149,13.628
				c0,2.126,0.136,4.263-0.027,6.376c-0.397,5.084,1.326,9.232,5.673,11.85c7.146,4.302,14.391,8.455,21.747,12.385
				c3.787,2.021,7.72,1.506,11.409-0.839c3.271-2.077,6.328-3.858,9.53-6.028c0.355-0.24,0.657-0.466,0.657-0.675v-0.027
				c0-1.7,0-3.393,0-5.095v-0.016c3,0.012,5.211,0.017,7.618,0.019c2.328,0,5.057-0.053,7.382-0.053c0.001,0,0.001,0,0.004,0
				c0.01-2,0.019-3.26,0.026-4.885c0.021-3.986,0.104-7.997,0.116-11.982c6.181,0,12.168-0.079,18.226-0.245
				c6.654-0.18,7.219,3.076,7.045,8.239c-0.166,4.878,0.595,9.485-6.916,9.038c-3.332-0.197-7.169-0.229-10.515-0.229
				c-2.826,0-5.986-0.06-8.986,0.113v0.027c0,0.419,0.633,0.834,0.629,1.247c-0.002,0.694,0.371,1.382,0.371,2.071
				c0,0.148,0,0.604,0,0.604h-0.156c0,0,0.077,0.016,0.063,0.061c-0.008,0.148,0.031,0.256,0.012,0.406
				c0.006,0.226,0.07,0.434,0.068,0.661c0.352,0.207,0.697,0.418,1.052,0.656c3.315,2.229,6.86,4.1,10.255,6.215
				c3.445,2.147,7.187,2.805,10.711,0.898c7.876-4.264,15.633-8.768,23.266-13.455c3.423-2.103,4.75-5.655,4.632-9.706
				c-0.109-3.875,0.071-7.771-0.253-11.627c-0.586-6.953,2.264-11.654,8.496-14.646c3.598-1.729,7.004-3.856,10.502-5.792
				c1.449-0.802,2.577-1.786,3.489-2.966c0.504-1.406,0.863-2.745,1.863-3.997c0,0,0,0,0-0.003c0-0.316,0.203-0.643,0.26-0.978
				C622.912,524.268,623.271,514.748,621.052,505.413z M543.526,524.862c0.007-0.236,0.52-0.615,0.816-0.637
				c0.281-0.017,0.836,0.342,0.843,0.551c0.078,2.085,0.12,4.176,0.014,6.256c-0.014,0.286-0.899,0.527-1.405,0.801
				c-0.218-0.494-0.301-0.598-0.302-0.698C543.485,529.042,543.46,526.952,543.526,524.862z M538.987,525.364
				c0.006-0.318,0.176-0.637,0.295-1.035c0.351-0.032,0.783-0.204,0.956-0.062c0.312,0.255,0.642,0.693,0.657,1.065
				c0.066,1.708,0.095,3.425-0.025,5.127c-0.033,0.443-0.652,0.844-1,1.263c-0.301-0.409-0.83-0.806-0.855-1.229
				C538.917,528.788,538.96,527.074,538.987,525.364z M534.555,525.456c0.007-0.329,0.157-0.657,0.261-1.061
				c0.326-0.061,0.752-0.276,0.938-0.146c0.315,0.221,0.66,0.652,0.678,1.009c0.081,1.707,0.124,3.423,0.026,5.128
				c-0.026,0.463-0.585,0.894-0.901,1.338c-0.348-0.434-0.964-0.852-0.995-1.309C534.449,528.77,534.521,527.11,534.555,525.456z
				 M523.934,583.987c-3.36,0.003-6.721,0.029-10.079,0.105c-4.505,0.102-6.351-1.389-6.346-6.177
				c0.012-10.905-0.21-10.907,10.939-10.909c4.774,0,9.549,0.053,14.325,0.076c0.007,3.971,0.016,7.945,0.022,11.914
				c0.003,1.672,0.007,3.35,0.009,5.02C529.848,584.001,526.89,583.985,523.934,583.987z"/>
			<path fill-rule="evenodd" clip-rule="evenodd" fill="#02004C" d="M545.601,506.805c0.168,3.756,0.33,7.397,0.475,10.674
				c2.893,0.096,6.07,0.201,9.254,0.307C554.935,512.997,549.555,506.7,545.601,506.805z"/>
		</g>
		<path fill-rule="evenodd" clip-rule="evenodd" d="M547,584c-2.325,0-4.654,0.053-6.98,0.053c-2.406-0.002-5.218-0.02-7.623-0.032
			c0.005,1.717-0.397,3.438-0.397,5.151v0.009c2-0.977,3.677-1.625,5.303-1.934c1.456-0.275,3.113-0.286,4.571-0.023
			c0.103,0.019,0.308,0.038,0.407,0.059c1.521,0.314,3.1,0.897,4.641,1.802c0.012-1.695,0.073-4.084,0.082-5.084
			C547.001,584,547.001,584,547,584z M568.813,442.302c-3.654-1.365-7.083-1.071-10.408,0.971c-0.049,0.029-0.098,0.061-0.146,0.09
			c5.092,0.169,10.185,0.488,15.281,0.871C571.99,443.545,570.415,442.9,568.813,442.302z M521.271,443.15
			c-3.212-1.938-6.542-2.209-10.064-0.904c-2.203,0.818-4.354,1.722-6.455,2.712c5.978-0.355,11.954-0.688,17.933-0.964
			C522.212,443.715,521.741,443.434,521.271,443.15z"/>
		<path fill-rule="evenodd" clip-rule="evenodd" fill="#02004C" d="M546.976,588.429c0.02-0.15,0.035-0.299,0.043-0.446
			C546.979,588.13,546.972,588.278,546.976,588.429z"/>
		<g>
			<path fill-rule="evenodd" clip-rule="evenodd" fill="#FFFF00" d="M621.052,505.414c-0.67-2.824-3.033-5.694-5.398-7.559
				c-0.93-0.733-1.912-1.406-2.929-2.036c-2.583-1.596-5.389-2.915-8.118-4.267c-5.802-2.874-8.41-7.357-7.961-13.829
				c0.275-3.986,0.131-8.002,0.258-12.003c0.13-4.037-1.32-7.276-4.467-9.832c-5.82-4.73-12.104-8.626-18.896-11.653
				c-1.549-0.688-3.124-1.333-4.727-1.932c-3.652-1.364-7.082-1.071-10.407,0.971c-0.049,0.029-0.099,0.061-0.147,0.09
				c-3.363,2.058-6.854,3.922-10.114,6.125c-5.479,3.703-10.775,3.762-16.285,0.065c-2.965-1.991-6.092-3.74-9.174-5.56
				c-0.474-0.279-0.944-0.561-1.413-0.844c-3.212-1.938-6.542-2.209-10.064-0.903c-2.203,0.817-4.354,1.722-6.455,2.711
				c-6.256,2.948-12.067,6.66-17.465,11.098c-3.012,2.477-4.408,5.644-4.3,9.535c0.11,4.001-0.043,8.019,0.261,12.003
				c0.505,6.653-2.281,11.157-8.173,14.084c-2.572,1.278-5.066,2.713-7.564,4.142c-1.084,0.619-2.169,1.237-3.263,1.84
				c-3.16,1.746-5.04,4.366-5.667,7.938c-1.642,9.333-1.624,18.655-0.014,27.992c0.103,0.586,0.181,1.146,0.347,1.682
				c0.463,1.483,1.084,2.773,2.084,3.882c0,0.002,0,0.002,0,0.002c1,1.033,2.065,1.911,3.398,2.645
				c4.271,2.35,8.607,4.639,12.776,7.155c1.416,0.854,2.548,2.254,3.675,3.519c3.608,4.051,2.13,8.979,2.156,13.629
				c0,2.126,0.139,4.262-0.024,6.377c-0.397,5.082,1.327,9.231,5.675,11.848c7.146,4.303,14.391,8.455,21.748,12.385
				c3.786,2.022,7.719,1.506,11.409-0.838c3.271-2.076,6.735-3.859,9.938-6.028c0.355-0.24,0.709-0.466,1.063-0.675
				c1.643-0.977,3.271-1.619,4.896-1.928c1.456-0.277,2.91-0.285,4.369-0.023c1.622,0.293,3.25,0.922,4.894,1.885
				c0.353,0.208,0.706,0.431,1.06,0.668c3.315,2.229,6.865,4.105,10.26,6.221c3.444,2.148,7.188,2.808,10.712,0.9
				c7.876-4.262,15.635-8.766,23.265-13.453c3.424-2.102,4.752-5.655,4.633-9.705c-0.109-3.877,0.073-7.773-0.251-11.628
				c-0.586-6.953,2.264-11.653,8.495-14.645c3.599-1.728,7.004-3.857,10.503-5.792c1.449-0.803,2.576-1.787,3.49-2.965
				c0.891-1.148,1.861-2.479,1.861-3.998c0,0,0,0,0-0.003c0-0.317,0.203-0.644,0.262-0.978
				C622.912,524.269,623.271,514.749,621.052,505.414z M612.632,530.25c-0.061,1.491-1.508,3.321-2.834,4.278
				c-2.516,1.817-5.273,3.459-8.164,4.563c-6.548,2.505-10.396,7.485-13.175,13.512c-0.647,1.403-0.851,3.118-0.856,4.691
				c-0.014,5.004,0.366,10.015,0.158,15.005c-0.072,1.723-0.959,4.123-2.272,4.957c-6.085,3.878-12.396,7.423-18.772,10.807
				c-1.137,0.604-3.168,0.307-4.441-0.299c-2.337-1.112-4.664-2.365-6.78-3.863c-0.428-0.302-0.845-0.613-1.253-0.936
				c-2.283-1.807-4.692-3.064-7.211-3.861c-3.484-1.107-7.178-1.336-11.041-0.93c-1.067,0.113-2.168,0.398-3.192,0.814
				c-0.459,0.187-0.904,0.4-1.323,0.637c-2.528,1.422-5.058,2.857-7.54,4.361c-1.687,1.023-3.354,2.077-4.984,3.184
				c-2.507,1.699-4.736,1.876-7.271,0.413c-5.397-3.116-10.798-6.23-16.225-9.296c-2.839-1.607-3.907-3.902-3.471-7.16
				c0.279-2.09,0.052-4.246,0.052-7.002c1.137-5.926,0.329-12.085-4.022-17.377c-1.384-1.681-2.823-3.486-4.624-4.618
				c-4.228-2.655-8.799-4.769-12.997-7.469c-1.444-0.93-3.041-2.902-3.114-4.467c-0.327-7.09-0.279-14.208-0.008-21.303
				c0.053-1.394,1.407-3.125,2.654-4.007c2.537-1.792,5.278-3.455,8.169-4.556c3.467-1.318,6.195-3.317,8.409-5.802
				c1.965-2.208,3.522-4.799,4.831-7.64c0.649-1.409,0.954-3.1,0.959-4.662c0.022-5.128-0.345-10.263-0.171-15.383
				c0.054-1.611,0.9-3.872,2.134-4.655c6.093-3.869,12.369-7.467,18.748-10.845c1.224-0.646,3.394-0.317,4.774,0.323
				c2.818,1.306,5.617,2.86,8.031,4.797c5.447,4.367,11.644,5.365,18.282,4.699c1.429-0.143,2.926-0.633,4.175-1.345
				c4.558-2.603,8.942-5.52,13.574-7.976c1.42-0.754,3.794-1.132,5.089-0.454c6.399,3.34,12.657,6.971,18.773,10.807
				c1.168,0.731,1.94,2.798,2.078,4.321c0.275,3.098,0.377,6.312-0.138,9.361c-1.169,6.934,1.242,12.745,5.031,18.194
				c0.103,0.145,0.21,0.288,0.323,0.427c0.799,0.992,1.885,1.846,2.979,2.482c4.537,2.641,9.256,4.978,13.697,7.762
				c1.363,0.855,2.863,2.736,2.928,4.207C612.911,516.039,612.918,523.157,612.632,530.25z"/>
			<path fill-rule="evenodd" clip-rule="evenodd" fill="#FFFF00" d="M570.89,493.498c-7.426-8.764-18.507-14.34-30.861-14.356
				c-12.438-0.016-23.573,5.563-31.023,14.356c-5.982,7.064-9.589,16.201-9.584,26.179c0.007,19.922,14.393,36.477,33.341,39.875
				c2.365,0.426,4.802,0.645,7.292,0.639c2.405-0.005,4.762-0.219,7.053-0.627c0.023-0.006,0.049-0.009,0.073-0.014
				c18.984-3.416,33.358-20.08,33.292-40.085C580.437,509.578,576.835,500.515,570.89,493.498z M547.159,550.357
				c-0.012,0.003-0.023,0.005-0.035,0.009c-2.283,0.531-4.66,0.814-7.101,0.819c-2.505,0.005-4.939-0.282-7.275-0.828
				c-13.999-3.272-24.39-15.864-24.322-30.896c0.05-11.045,5.826-20.751,14.509-26.326c4.94-3.172,10.821-5.005,17.121-4.99
				c6.23,0.016,12.037,1.847,16.92,4.992c8.719,5.612,14.496,15.412,14.489,26.542C571.456,534.593,561.078,547.097,547.159,550.357
				z"/>
		</g>
	</g>
	<text transform="matrix(1 0 0 1 448.6323 630.4277)" font-family="'TrajanPro-Bold'" font-size="28.6287">CAS-Touch</text>
</g>
</svg>
