<svg xmlns="http://www.w3.org/2000/svg" xmlns:xlink="http://www.w3.org/1999/xlink" width="85.964" height="18.121" viewBox="0 0 85.964 18.121">
  <defs>
    <linearGradient id="linear-gradient" y1="0.5" x2="1" y2="0.5" gradientUnits="objectBoundingBox">
      <stop offset="0" stop-color="#3baa36"/>
      <stop offset="0.114" stop-color="#39a638"/>
      <stop offset="0.243" stop-color="#359c3d"/>
      <stop offset="0.379" stop-color="#2f8c43"/>
      <stop offset="0.519" stop-color="#297748"/>
      <stop offset="0.664" stop-color="#245d4a"/>
      <stop offset="0.811" stop-color="#1f4046"/>
      <stop offset="0.958" stop-color="#1c223a"/>
      <stop offset="1" stop-color="#1a1b37"/>
    </linearGradient>
    <linearGradient id="linear-gradient-2" x1="0" y1="0.5" x2="1" y2="0.5" xlink:href="#linear-gradient"/>
    <linearGradient id="linear-gradient-3" x1="0" y1="0.5" x2="1" y2="0.5" xlink:href="#linear-gradient"/>
    <linearGradient id="linear-gradient-4" x1="0" y1="0.5" x2="1" y2="0.5" xlink:href="#linear-gradient"/>
    <linearGradient id="linear-gradient-5" x1="0" y1="0.5" x2="1" y2="0.5" xlink:href="#linear-gradient"/>
    <linearGradient id="linear-gradient-7" x1="0" y1="0.5" x2="1" y2="0.5" xlink:href="#linear-gradient"/>
    <linearGradient id="linear-gradient-8" x1="0" y1="0.5" x2="1" y2="0.5" xlink:href="#linear-gradient"/>
    <linearGradient id="linear-gradient-10" x1="-0.001" y1="0.5" x2="1.001" y2="0.5" xlink:href="#linear-gradient"/>
    <linearGradient id="linear-gradient-11" x1="0" y1="0.5" x2="1" y2="0.5" xlink:href="#linear-gradient"/>
  </defs>
  <g id="Instrinsic_Logo-06" data-name="Instrinsic Logo-06" transform="translate(-66.545 -440.198)">
    <g id="Group_2" data-name="Group 2" transform="translate(66.545 440.198)">
      <rect id="Rectangle_2" data-name="Rectangle 2" width="1.461" height="13.448" transform="translate(0.47 4.673)" fill="#fff"/>
      <path id="Path_1" data-name="Path 1" d="M68.591,440.553a1.2,1.2,0,0,0-1.693,1.7,1.2,1.2,0,0,0,2.047-.845A1.168,1.168,0,0,0,68.591,440.553Z" transform="translate(-66.545 -440.198)" fill="#fff"/>
      <path id="Path_2" data-name="Path 2" d="M111.437,472.8v9.736l-.469-.54-1.512-1.742-8.231-9.481h-.335v1.9l2.065,2.379,6.5,7.456,1.512,1.735,1.637,1.879h.344V472.8Z" transform="translate(-97.772 -468.002)" fill="#3aaa35"/>
      <rect id="Rectangle_3" data-name="Rectangle 3" width="1.461" height="13.448" transform="translate(39.197 4.673)" fill="#fff"/>
      <path id="Path_3" data-name="Path 3" d="M495.188,440.553a1.2,1.2,0,0,0-1.693,1.7,1.2,1.2,0,0,0,2.047-.845A1.17,1.17,0,0,0,495.188,440.553Z" transform="translate(-454.414 -440.198)" fill="#fff"/>
      <rect id="Rectangle_4" data-name="Rectangle 4" width="1.461" height="13.448" transform="translate(67.097 4.673)" fill="#fff"/>
      <path id="Path_4" data-name="Path 4" d="M802.5,440.553a1.2,1.2,0,0,0-1.693,1.7,1.2,1.2,0,0,0,2.047-.845A1.169,1.169,0,0,0,802.5,440.553Z" transform="translate(-733.83 -440.198)" fill="#fff"/>
      <path id="Path_5" data-name="Path 5" d="M538.031,472.8v9.736l-.469-.54-1.513-1.742-8.231-9.481h-.335v1.9l2.065,2.379,6.5,7.456,1.513,1.735,1.637,1.879h.344V472.8Z" transform="translate(-485.638 -468.002)" fill="#3aaa35"/>
      <rect id="Rectangle_5" data-name="Rectangle 5" width="1.564" height="12.343" transform="translate(20.839 5.778)" fill="#fff"/>
      <rect id="Rectangle_6" data-name="Rectangle 6" width="12.152" height="1.5" transform="translate(13.673 2.776)" fill="#fff"/>
      <path id="Path_6" data-name="Path 6" d="M373.813,470.773h3.056a18.516,18.516,0,0,1,3.464.209,3.953,3.953,0,0,1,2.222,1.342,3.831,3.831,0,0,1,.856,2.533,4.1,4.1,0,0,1-.59,2.2,3.674,3.674,0,0,1-1.685,1.436,7.735,7.735,0,0,1-3.025.5l5.519,7.125h-1.9l-5.519-7.125h-.867v7.125h-1.533Zm1.533,1.5v5.216l2.643.021a6.561,6.561,0,0,0,2.273-.292,2.363,2.363,0,0,0,1.149-.933,2.6,2.6,0,0,0,.413-1.435,2.488,2.488,0,0,0-.418-1.4,2.331,2.331,0,0,0-1.1-.9,6.665,6.665,0,0,0-2.257-.271Z" transform="translate(-345.918 -467.997)" fill="#fff"/>
      <path id="Path_7" data-name="Path 7" d="M681.183,475.143l1.3-.782q1.376,2.535,3.182,2.535a3.046,3.046,0,0,0,1.45-.36,2.549,2.549,0,0,0,1.033-.965,2.5,2.5,0,0,0,.355-1.283,2.6,2.6,0,0,0-.522-1.512,12.5,12.5,0,0,0-2.629-2.462,13.443,13.443,0,0,1-2.389-2.1,3.835,3.835,0,0,1-.814-2.347,3.563,3.563,0,0,1,.48-1.825,3.425,3.425,0,0,1,1.351-1.3,3.894,3.894,0,0,1,1.893-.475,4.035,4.035,0,0,1,2.029.537,6.965,6.965,0,0,1,2,1.977l-1.252.949a6,6,0,0,0-1.476-1.513,2.542,2.542,0,0,0-1.33-.365,2.107,2.107,0,0,0-1.518.563,1.844,1.844,0,0,0-.589,1.387,2.367,2.367,0,0,0,.209.97,3.563,3.563,0,0,0,.762,1.022q.3.292,1.982,1.534a11.157,11.157,0,0,1,2.733,2.618,4.22,4.22,0,0,1,.741,2.305,3.913,3.913,0,0,1-1.268,2.9,4.26,4.26,0,0,1-3.082,1.231,4.519,4.519,0,0,1-2.535-.746A6.822,6.822,0,0,1,681.183,475.143Z" transform="translate(-625.384 -460.266)" fill="#fff"/>
      <path id="Path_8" data-name="Path 8" d="M863.215,465.5l-1.21.929a6.617,6.617,0,0,0-2.4-1.977,7.034,7.034,0,0,0-3.082-.673,6.812,6.812,0,0,0-3.4.881,6.333,6.333,0,0,0-2.426,2.368,6.553,6.553,0,0,0-.861,3.343,6.277,6.277,0,0,0,1.924,4.684,6.671,6.671,0,0,0,4.856,1.878A6.827,6.827,0,0,0,862,474.414l1.21.918a7.735,7.735,0,0,1-2.863,2.258,8.983,8.983,0,0,1-3.834.8,7.974,7.974,0,0,1-6.353-2.681,8.088,8.088,0,0,1-1.951-5.466,7.6,7.6,0,0,1,2.362-5.669,8.147,8.147,0,0,1,5.921-2.3,8.689,8.689,0,0,1,3.88.85A7.53,7.53,0,0,1,863.215,465.5Z" transform="translate(-777.251 -460.267)" fill="#fff"/>
      <g id="Group_1" data-name="Group 1" transform="translate(74.144 4.463)">
        <path id="Path_9" data-name="Path 9" d="M889.906,503.871a.19.19,0,0,0,.013.02c.047.065.046.158.155.133a1.907,1.907,0,0,0,1.186-.728c.009-.012.018-.024.026-.036A5.409,5.409,0,0,1,889.906,503.871Zm3.3-8.4a5.357,5.357,0,0,0-2.967-2.3c.073.1.14.2.212.3a2.736,2.736,0,0,1,.147.245c-.165.067-.231.3-.393.377a.3.3,0,0,1-.242-.006.642.642,0,0,0-.951.428c-.048.137-.268.175-.229.372.022.112,0,.271.187.17l.02-.011c.046-.028.088-.062.119.01s.045.121-.045.143c-.16.04-.154.128-.085.249a.074.074,0,0,1,0,.047.147.147,0,0,1-.024.059c-.2-.021-.236.205-.386.254-.045.041-.084.106-.135.117-.2.044-.261.1-.133.31a.311.311,0,0,1,.037.087h0a.143.143,0,0,1-.032.138.289.289,0,0,1-.255.052c-.126-.02-.3-.043-.295.109,0,.186-.252.4-.007.545l.031.02c.1.065.114.126.094.181a.3.3,0,0,1-.105.12.522.522,0,0,0-.277.406c0,.054-.081.126-.141.149a1.053,1.053,0,0,0-.489.479.52.52,0,0,0-.117.47.473.473,0,0,1-.05.3.572.572,0,0,0,.132.69c.179.189.265.451.489.613a.522.522,0,0,0,.365.1,4.309,4.309,0,0,0,.922-.114.2.2,0,0,1,.262.1c.022.051.067.094.119.083a.5.5,0,0,1,.242-.011c.15.044.1.227.045.386l-.012.04a.246.246,0,0,0,.084.294,1,1,0,0,1,.233.307,1.425,1.425,0,0,1,.11.324.343.343,0,0,1-.072.331.625.625,0,0,0-.109.2.569.569,0,0,0,.065.452,7.264,7.264,0,0,0,.333.784.213.213,0,0,0,.013.02c.047.065.046.158.155.133a1.906,1.906,0,0,0,1.186-.728c.009-.012.018-.024.026-.036.221-.313.331-.726.725-.918a.438.438,0,0,0,.154-.529c-.21-.587.164-.958.444-1.361a1.985,1.985,0,0,0,.378-1.142c-.16-.022-.253.1-.374.168-.061.033-.119.108-.187.041a.144.144,0,0,1-.018-.022c-.061-.083-.017-.133.041-.179l.026-.02a2.364,2.364,0,0,0,.706-.954c.141-.312.089-.517-.177-.673-.216.177-.32.194-.5.017-.03-.03-.062-.064-.1-.1-.056-.064-.146-.152-.057-.24s.152.016.189.077c.075.124.187.105.3.1a.354.354,0,0,1,.123.01.169.169,0,0,1,.046.022c.138-.061.3-.06.409-.193.033-.042.074-.075.128-.027.165.149.369.222.5.444.023.039.046.078.066.117A5.859,5.859,0,0,0,893.207,495.476Zm-.9,3.788c0,.025.007.048.009.071-.021-.012-.042-.025-.063-.039a1.132,1.132,0,0,1-.17-.135c-.362-.35-.461-.877-.835-1.226.3.019.786.6.983,1.079A1.233,1.233,0,0,1,892.31,499.263Zm-1.771-3.253c.19.156.314.07.427-.064L891,495.9l.013.044c0,.159.1.214.228.268l.009,0c.081.03.241.04.191.174a.165.165,0,0,1-.043.065.306.306,0,0,1-.289.049.361.361,0,0,0-.238,0c-.142.053-.237.193-.347.286a.076.076,0,0,0-.027.055.3.3,0,0,0,.3.249c.065,0,.114-.056.2-.051.121.007.317-.178.31.106,0,.176.144.484-.275.462h-.032c-.207.007-.412.179-.636.009-.039-.029-.23.044-.232.075a.518.518,0,0,1-.005.06c-.022.164-.1.153-.174.112a.688.688,0,0,0-.152-.081c-.112-.017-.191-.194-.342-.078-.047-.094-.211-.1-.17-.27s0-.265-.244-.221c-.206.037-.417.039-.619.1a.952.952,0,0,0-.184.069c-.11.055-.191-.006-.306-.083.469.009.553-.4.762-.66.109-.136.256-.006.363-.107.145-.137.18-.011.229.082a.371.371,0,0,0,.024.038c.089.122.283.115.333.313a.481.481,0,0,1,.047-.093c.037-.062.06-.112-.056-.161-.06-.025-.1-.1-.151-.15-.066-.076-.237-.144-.112-.259.072-.066.139.113.217.141.267.092.359.335.5.534h0a.209.209,0,0,0,.016.023c.043.059.084.1.148.06.047-.025.049-.065.025-.109a.141.141,0,0,0-.012-.02c-.085-.118-.057-.175,0-.2a.366.366,0,0,1,.147-.02c.133.005.17-.1.138-.143a.265.265,0,0,1-.067-.143C890.459,496.295,890.552,496.165,890.539,496.011Zm-1.367-.706a.569.569,0,0,0,.1-.041.26.26,0,0,0,.151-.17.435.435,0,0,0-.053-.284.193.193,0,0,1,.009-.19c.03-.057.078-.117.13-.2.009.067.014.129.02.185a.32.32,0,0,0,.164.293.176.176,0,0,1,.059.235.723.723,0,0,1-.191.243.434.434,0,0,1-.223.092.552.552,0,0,1-.24-.03C888.952,495.393,889.12,495.321,889.172,495.305Zm3.068,1.307c-.1.017-.222,0-.23-.1-.02-.233-.195-.35-.335-.48-.119-.109-.054-.2-.033-.3a.123.123,0,0,1,.128-.109c.088.012.091.065.064.154-.059.187.141.187.229.255.156.12.186.309.3.436A.145.145,0,0,1,892.24,496.612Zm-6.462-2.7c-.162.035-.239.232-.408.254a5.411,5.411,0,0,0-1.128,1.227,1.784,1.784,0,0,1,.318-.177c.05-.021.068,0,.129.087a.182.182,0,0,0,.219.04c.128-.054-.018-.068-.026-.1-.035-.165.136-.231.194-.355.047-.1.09.055.15.075.221.069.422.01.412-.22-.009-.208.258-.347.106-.568-.009-.014.072-.089.111-.135Zm-1.729,6.476a.5.5,0,0,1-.175-.324.936.936,0,0,0-.29-.687.47.47,0,0,1-.088-.157c-.1-.2-.141-.415-.243-.62,0,.084,0,.169,0,.255a6.114,6.114,0,0,0,.971,3.2,5.061,5.061,0,0,0,.359.507.712.712,0,0,1,.077-.019c.19-.036.157-.221.146-.357a.732.732,0,0,1,.131-.571.371.371,0,0,0-.055-.478C884.639,500.841,884.306,500.656,884.049,500.385Z" transform="translate(-883.25 -492.83)" fill-rule="evenodd" fill="url(#linear-gradient)"/>
        <path id="Path_10" data-name="Path 10" d="M919.119,492.546l-.041.044-.41.441a.125.125,0,0,0-.065-.121.15.15,0,0,0,0-.13.142.142,0,0,0-.054-.053c-.042-.3.217-.242.371-.307C918.945,492.526,919.083,492.454,919.119,492.546Z" transform="translate(-915.338 -492.142)" fill-rule="evenodd" fill="url(#linear-gradient-2)"/>
        <path id="Path_11" data-name="Path 11" d="M929.611,489.516a.243.243,0,0,0-.021.106c-.006.089-.01.18-.178.136,0-.032,0-.065.007-.1l-.065-.087a.082.082,0,0,0,.011-.059c.01-.174.012-.175.125-.117C929.478,489.491,929.612,489.433,929.611,489.516Z" transform="translate(-925.168 -489.364)" fill-rule="evenodd" fill="url(#linear-gradient-3)"/>
        <path id="Path_12" data-name="Path 12" d="M919.517,491.276c.241.062.145-.152.2-.243l.245.017c0,.04,0,.081.006.121.005.009.009.023.017.025.463.122.453.115.149.527a1.27,1.27,0,0,1-.907.51,1.068,1.068,0,0,0-.566.271c-.042.035-.088.115-.149.047a.194.194,0,0,1-.035-.167.755.755,0,0,1,.187-.31A4.2,4.2,0,0,0,919.517,491.276Z" transform="translate(-915.272 -490.882)" fill-rule="evenodd" fill="url(#linear-gradient-4)"/>
        <path id="Path_13" data-name="Path 13" d="M982.325,588.5c-.027-.521.343-.835.627-1.194A2.062,2.062,0,0,1,982.325,588.5Z" transform="translate(-973.329 -578.412)" fill-rule="evenodd" fill="url(#linear-gradient-5)"/>
        <path id="Path_14" data-name="Path 14" d="M937.528,514.864c-.044-.053-.1-.013-.138,0-.282.058-.386-.007-.2-.278.085-.124-.1-.152-.082-.256.011-.071,0-.161.07-.187.116-.042.1.091.111.134.033.218.235.366.233.594Z" transform="translate(-932.208 -511.883)" fill-rule="evenodd" fill="url(#linear-gradient-5)"/>
        <path id="Path_15" data-name="Path 15" d="M914.937,498.009c.065-.172.243-.126.364-.189a.125.125,0,0,1,.066.121c-.057.219-.3.1-.43.23C914.884,498.224,914.928,498.07,914.937,498.009Z" transform="translate(-912.037 -497.052)" fill-rule="evenodd" fill="url(#linear-gradient-7)"/>
        <path id="Path_16" data-name="Path 16" d="M931.022,505.977c.052.023.162-.053.163.057,0,.136-.128.136-.225.14-.063,0-.148,0-.143-.106C930.827,505.91,930.942,505.986,931.022,505.977Z" transform="translate(-926.499 -504.459)" fill-rule="evenodd" fill="url(#linear-gradient-8)"/>
        <path id="Path_17" data-name="Path 17" d="M904.515,514.158c-.047-.075-.21-.106-.111-.246.037-.052.133-.063.2-.093C904.61,513.938,904.654,514.066,904.515,514.158Z" transform="translate(-902.455 -511.599)" fill-rule="evenodd" fill="url(#linear-gradient-4)"/>
        <path id="Path_18" data-name="Path 18" d="M934.905,491.346c0-.04,0-.081-.006-.121C934.963,491.262,935.05,491.3,934.905,491.346Z" transform="translate(-930.21 -491.056)" fill-rule="evenodd" fill="url(#linear-gradient-10)"/>
        <path id="Path_19" data-name="Path 19" d="M928.871,491.681l.065.087-.112-.023C928.815,491.706,928.836,491.688,928.871,491.681Z" transform="translate(-924.685 -491.471)" fill-rule="evenodd" fill="url(#linear-gradient-11)"/>
      </g>
    </g>
  </g>
</svg>
