<svg xmlns="http://www.w3.org/2000/svg" xmlns:xlink="http://www.w3.org/1999/xlink" width="310.059" height="333.135" viewBox="0 0 310.059 333.135">
  <defs>
    <linearGradient id="linear-gradient" y1="0.5" x2="1" y2="0.5" gradientUnits="objectBoundingBox">
      <stop offset="0" stop-color="#3baa36"/>
      <stop offset="0.114" stop-color="#39a638"/>
      <stop offset="0.243" stop-color="#359c3d"/>
      <stop offset="0.379" stop-color="#2f8c43"/>
      <stop offset="0.519" stop-color="#297748"/>
      <stop offset="0.664" stop-color="#245d4a"/>
      <stop offset="0.811" stop-color="#1f4046"/>
      <stop offset="0.958" stop-color="#1c223a"/>
      <stop offset="1" stop-color="#1a1b37"/>
    </linearGradient>
    <linearGradient id="linear-gradient-2" x1="0" y1="0.5" x2="1" y2="0.5" xlink:href="#linear-gradient"/>
    <linearGradient id="linear-gradient-3" x1="0" y1="0.5" x2="1" y2="0.5" xlink:href="#linear-gradient"/>
    <linearGradient id="linear-gradient-4" x1="0" y1="0.5" x2="1" y2="0.5" xlink:href="#linear-gradient"/>
    <linearGradient id="linear-gradient-5" x1="0" y1="0.5" x2="1" y2="0.5" xlink:href="#linear-gradient"/>
    <linearGradient id="linear-gradient-7" x1="0" y1="0.5" x2="1" y2="0.5" xlink:href="#linear-gradient"/>
    <linearGradient id="linear-gradient-8" x1="0" y1="0.5" x2="1" y2="0.5" xlink:href="#linear-gradient"/>
    <linearGradient id="linear-gradient-10" x1="-0.001" y1="0.5" x2="1.001" y2="0.5" xlink:href="#linear-gradient"/>
    <linearGradient id="linear-gradient-11" x1="0" y1="0.5" x2="1" y2="0.5" xlink:href="#linear-gradient"/>
  </defs>
  <g id="Instrinsic_Logo_White" data-name="Instrinsic Logo White" transform="translate(-1466.773 -41.419)">
    <g id="Group_2" data-name="Group 2" transform="translate(0 0)">
      <path id="Path_8" data-name="Path 8" d="M1158.273,529.113l-25.011,19.193q-20.7-26.951-49.7-40.86t-63.71-13.9a140.786,140.786,0,0,0-70.291,18.217q-32.346,18.228-50.137,48.944-17.783,30.731-17.787,69.107,0,58.008,39.779,96.814t100.372,38.813q66.627,0,111.473-52.183l25.011,18.977a159.882,159.882,0,0,1-59.178,46.677q-35.482,16.5-79.245,16.5-83.236,0-131.311-55.414Q848.206,693.2,848.214,627q0-69.641,48.831-117.183,48.849-47.546,122.374-47.55,44.407,0,80.208,17.575A155.654,155.654,0,0,1,1158.273,529.113Z" transform="translate(618.559 -420.852)" fill="#fff"/>
      <g id="Group_1" data-name="Group 1" transform="translate(1532.517 92.258)">
        <path id="Path_9" data-name="Path 9" d="M1020.829,714.235a4.179,4.179,0,0,0,.266.407c.974,1.353.946,3.269,3.205,2.741,9.836-2.254,17.869-6.249,24.51-15.038.193-.246.364-.5.533-.754A111.817,111.817,0,0,1,1020.829,714.235Zm68.241-173.524c-16.637-25.464-38.3-40.708-61.325-47.535,1.514,1.991,2.9,4.145,4.376,6.162a55.694,55.694,0,0,1,3.036,5.065c-3.419,1.387-4.772,6.262-8.127,7.793a6.3,6.3,0,0,1-5-.118c-9.442-3.558-16.138-1.081-19.65,8.855-.991,2.822-5.534,3.614-4.744,7.7.448,2.308.079,5.611,3.856,3.507.129-.066.265-.143.407-.231.946-.576,1.813-1.276,2.466.2.52,1.184.94,2.5-.923,2.957-3.3.818-3.175,2.642-1.76,5.141a1.52,1.52,0,0,1-.026.981,3.041,3.041,0,0,1-.486,1.21c-4.134-.43-4.875,4.237-7.971,5.26-.933.843-1.738,2.2-2.794,2.426-4.183.9-5.385,2.038-2.743,6.414a6.408,6.408,0,0,1,.767,1.8h.011a2.958,2.958,0,0,1-.664,2.845c-.981,1.023-2.845,1.469-5.278,1.085-2.608-.407-6.177-.9-6.087,2.257.1,3.841-5.215,8.279-.15,11.266.225.139.452.278.649.422,1.978,1.338,2.347,2.614,1.94,3.734a6.13,6.13,0,0,1-2.171,2.488c-3.021,2.257-5.522,4.233-5.731,8.382-.06,1.111-1.67,2.614-2.907,3.087-4.86,1.865-7.515,5.845-10.1,9.9-1.876,2.935-3.67,5.744-2.409,9.713.559,1.76-.2,4.26-1.036,6.136-2.449,5.483-1.353,9.966,2.732,14.254,3.7,3.9,5.474,9.32,10.114,12.666a10.779,10.779,0,0,0,7.54,2.015,89.057,89.057,0,0,0,19.061-2.361c2-.524,4.31-.4,5.423,2.119.464,1.045,1.379,1.95,2.451,1.708a10.235,10.235,0,0,1,5-.231c3.108.908,1.972,4.7.927,7.986-.086.278-.165.55-.251.818-.9,2.869-.039,4.49,1.745,6.083a20.6,20.6,0,0,1,4.824,6.344,29.444,29.444,0,0,1,2.284,6.7,7.1,7.1,0,0,1-1.482,6.84,12.873,12.873,0,0,0-2.256,4.145c-.933,2.946-.43,5.96,1.353,9.339,2.715,5.153,3.471,11.189,6.875,16.2a4.165,4.165,0,0,0,.266.407c.974,1.353.946,3.269,3.205,2.741,9.836-2.254,17.87-6.249,24.51-15.038.193-.246.364-.5.533-.754,4.567-6.479,6.842-15,14.989-18.969,4.173-2.015,4.3-7.832,3.19-10.936-4.34-12.128,3.393-19.795,9.17-28.139a41.022,41.022,0,0,0,7.81-23.613c-3.308-.458-5.22,2.154-7.722,3.481-1.259.689-2.462,2.231-3.865.843a3.08,3.08,0,0,1-.377-.447c-1.251-1.708-.358-2.742.839-3.7.161-.139.358-.278.533-.422,6.774-5.149,11.15-12.077,14.582-19.718,2.91-6.457,1.85-10.694-3.661-13.92-4.462,3.661-6.618,4.006-10.332.345-.625-.612-1.278-1.327-2-2.169-1.15-1.327-3.027-3.137-1.188-4.963,1.875-1.846,3.139.33,3.9,1.595,1.546,2.565,3.867,2.18,6.1,2.077a7.317,7.317,0,0,1,2.537.216,3.476,3.476,0,0,1,.948.447c2.843-1.261,6.288-1.25,8.461-3.98.687-.869,1.528-1.554,2.638-.557,3.406,3.087,7.626,4.588,10.4,9.182.486.807.944,1.623,1.366,2.423A121.108,121.108,0,0,0,1089.07,540.711ZM1070.521,619c.086.508.152,1,.191,1.465-.441-.253-.88-.52-1.3-.8a23.222,23.222,0,0,1-3.509-2.792c-7.487-7.224-9.527-18.119-17.26-25.336,6.112.392,16.237,12.347,20.311,22.3A25.359,25.359,0,0,1,1070.521,619Zm-36.6-67.23c3.933,3.214,6.494,1.454,8.816-1.327.206-.308.422-.615.64-.919.088.3.182.612.267.9-.1,3.3,1.993,4.427,4.708,5.549a.661.661,0,0,0,.184.066c1.679.612,4.973.818,3.942,3.6a3.415,3.415,0,0,1-.885,1.349c-1.479,1.454-4.081,1.573-5.971,1.008a7.468,7.468,0,0,0-4.926.066c-2.931,1.1-4.9,3.98-7.164,5.907a1.583,1.583,0,0,0-.565,1.147c-.148,2.13,3.143,5.369,6.1,5.142,1.344-.1,2.361-1.162,4.044-1.062,2.511.154,6.541-3.672,6.4,2.2-.092,3.646,2.972,10.009-5.687,9.54a6.553,6.553,0,0,0-.664,0c-4.271.139-8.508,3.7-13.141.176-.816-.608-4.757.908-4.8,1.557a10.859,10.859,0,0,1-.113,1.238c-.452,3.395-1.993,3.152-3.6,2.308-1.154-.627-2.329-1.557-3.147-1.672-2.308-.345-3.944-4.006-7.069-1.619-.972-1.938-4.363-1.976-3.509-5.59.818-3.481-.009-5.472-5.049-4.567-4.25.766-8.626.8-12.784,1.965a19.648,19.648,0,0,0-3.813,1.43c-2.274,1.135-3.943-.114-6.316-1.723,9.7.2,11.431-8.2,15.755-13.648,2.248-2.807,5.284-.118,7.5-2.21,3-2.83,3.725-.227,4.732,1.7a7.685,7.685,0,0,0,.488.8c1.835,2.511,5.841,2.385,6.874,6.479a9.906,9.906,0,0,1,.972-1.927c.775-1.291,1.248-2.323-1.148-3.318-1.246-.523-2.147-1.991-3.115-3.1-1.366-1.58-4.894-2.972-2.308-5.344,1.494-1.368,2.88,2.346,4.481,2.907,5.511,1.9,7.42,6.917,10.321,11.035h.011a4.111,4.111,0,0,0,.321.473c.893,1.223,1.734,1.965,3.049,1.25.97-.509,1.021-1.353.522-2.257a2.892,2.892,0,0,0-.257-.411c-1.758-2.449-1.186-3.622.051-4.145a7.576,7.576,0,0,1,3.047-.422c2.757.107,3.522-2.165,2.849-2.957a5.473,5.473,0,0,1-1.377-2.961C1032.26,557.638,1034.189,554.961,1033.917,551.771Zm-28.258-14.582a11.785,11.785,0,0,0,2.119-.842,5.37,5.37,0,0,0,3.113-3.507c.407-1.619-.013-3.584-1.1-5.868a4,4,0,0,1,.19-3.918c.612-1.173,1.618-2.422,2.695-4.031.191,1.392.281,2.668.422,3.815.332,2.745.891,4.783,3.393,6.048a3.628,3.628,0,0,1,1.212,4.849,14.96,14.96,0,0,1-3.944,5.014,8.975,8.975,0,0,1-4.614,1.9,11.428,11.428,0,0,1-4.952-.615C1001.119,539,1004.594,537.519,1005.66,537.188Zm63.408,27.006c-1.991.345-4.6-.088-4.76-2-.418-4.823-4.021-7.234-6.926-9.913-2.462-2.257-1.107-4.083-.672-6.175a2.533,2.533,0,0,1,2.648-2.257c1.811.257,1.891,1.338,1.315,3.192-1.225,3.873,2.91,3.864,4.73,5.267,3.216,2.488,3.852,6.38,6.16,9.02A3,3,0,0,1,1069.067,564.195ZM935.51,508.319c-3.346.726-4.95,4.8-8.425,5.256a111.858,111.858,0,0,0-23.306,25.372,36.854,36.854,0,0,1,6.575-3.661c1.03-.443,1.415.054,2.663,1.8,1.128,1.58,3.289,1.338,4.517.828,2.64-1.111-.37-1.4-.533-2.119-.717-3.4,2.805-4.772,4-7.348.972-2.081,1.85,1.146,3.1,1.542,4.571,1.43,8.731.2,8.512-4.541-.193-4.3,5.331-7.172,2.194-11.75-.186-.281,1.482-1.837,2.3-2.8C936.568,510.042,936.032,509.173,935.51,508.319Zm-35.745,133.86c-1.976-2.077-3.346-3.71-3.612-6.707-.486-5.26-1.52-10.474-6-14.2-.888-.741-1.276-2.13-1.824-3.25-2.017-4.134-2.909-8.587-5.016-12.824-.062,1.738-.075,3.5-.062,5.26.231,23.871,7.487,45.823,20.065,66.146a104.507,104.507,0,0,0,7.429,10.486,14.786,14.786,0,0,1,1.595-.4c3.927-.751,3.254-4.577,3.021-7.375-.355-4.3-.291-8.009,2.7-11.812,2.244-2.833,1.556-6.607-1.135-9.874C911.958,651.608,905.094,647.793,899.765,642.179Z" transform="translate(-883.25 -486.023)" fill-rule="evenodd" fill="url(#linear-gradient)"/>
        <path id="Path_10" data-name="Path 10" d="M930.459,495.037c-.278.306-.559.6-.839.9-2.817,3.038-5.656,6.072-8.474,9.108a2.586,2.586,0,0,0-1.353-2.5,3.108,3.108,0,0,0-.049-2.683,2.94,2.94,0,0,0-1.109-1.1c-.867-6.25,4.489-5,7.678-6.354C926.864,494.631,929.724,493.151,930.459,495.037Z" transform="translate(-852.317 -486.686)" fill-rule="evenodd" fill="url(#linear-gradient-2)"/>
        <path id="Path_11" data-name="Path 11" d="M934.682,492.5a5.014,5.014,0,0,0-.441,2.194c-.116,1.848-.216,3.714-3.672,2.818.045-.664.1-1.34.137-2-.445-.6-.906-1.2-1.353-1.8a1.689,1.689,0,0,0,.229-1.21c.216-3.6.244-3.625,2.58-2.426C931.944,491.987,934.7,490.788,934.682,492.5Z" transform="translate(-842.842 -489.364)" fill-rule="evenodd" fill="url(#linear-gradient-3)"/>
        <path id="Path_12" data-name="Path 12" d="M940.11,496.054c4.973,1.282,3-3.143,4.119-5.021,1.685.12,3.383.242,5.068.358.047.835.094,1.67.133,2.5.113.182.2.482.343.522,9.566,2.531,9.358,2.374,3.089,10.893-4.759,6.47-11.233,9.562-18.757,10.536-4.682.6-8.275,2.723-11.7,5.6-.861.726-1.818,2.385-3.072.968a4.006,4.006,0,0,1-.715-3.449c.978-2.3,2-5,3.864-6.418C928.961,507.655,935.186,502.573,940.11,496.054Z" transform="translate(-852.38 -487.901)" fill-rule="evenodd" fill="url(#linear-gradient-4)"/>
        <path id="Path_13" data-name="Path 13" d="M982.352,611.982c-.555-10.778,7.087-17.254,12.968-24.679A42.621,42.621,0,0,1,982.352,611.982Z" transform="translate(-796.415 -403.523)" fill-rule="evenodd" fill="url(#linear-gradient-5)"/>
        <path id="Path_14" data-name="Path 14" d="M946.013,529.281c-.9-1.088-1.995-.265-2.854-.088-5.84,1.2-7.973-.154-4.113-5.75,1.764-2.561-2.036-3.137-1.7-5.288.231-1.458-.039-3.323,1.437-3.86,2.394-.861,2.156,1.888,2.295,2.775.685,4.5,4.858,7.572,4.817,12.278C945.906,529.34,946.013,529.281,946.013,529.281Z" transform="translate(-836.055 -467.656)" fill-rule="evenodd" fill="url(#linear-gradient-5)"/>
        <path id="Path_15" data-name="Path 15" d="M915.443,501.731c1.342-3.55,5.021-2.61,7.53-3.911a2.586,2.586,0,0,1,1.355,2.5c-1.177,4.517-6.211,2.079-8.894,4.761C914.351,506.163,915.258,502.988,915.443,501.731Z" transform="translate(-855.499 -481.952)" fill-rule="evenodd" fill="url(#linear-gradient-7)"/>
        <path id="Path_16" data-name="Path 16" d="M935.052,506.18c1.07.465,3.344-1.1,3.359,1.18.021,2.815-2.648,2.8-4.641,2.9-1.31.062-3.07.023-2.946-2.188C931,504.795,933.382,506.375,935.052,506.18Z" transform="translate(-841.558 -474.812)" fill-rule="evenodd" fill="url(#linear-gradient-8)"/>
        <path id="Path_17" data-name="Path 17" d="M907.323,520.829c-.979-1.546-4.35-2.2-2.3-5.087.766-1.081,2.749-1.308,4.183-1.923C909.282,516.273,910.185,518.915,907.323,520.829Z" transform="translate(-864.736 -467.93)" fill-rule="evenodd" fill="url(#linear-gradient-4)"/>
        <path id="Path_18" data-name="Path 18" d="M935.032,493.726c-.039-.831-.086-1.666-.133-2.5C936.229,491.991,938.021,492.73,935.032,493.726Z" transform="translate(-837.981 -487.733)" fill-rule="evenodd" fill="url(#linear-gradient-10)"/>
        <path id="Path_19" data-name="Path 19" d="M929.82,491.681c.452.6.9,1.2,1.351,1.8-.766-.161-1.537-.321-2.306-.484C928.683,492.189,929.1,491.825,929.82,491.681Z" transform="translate(-843.307 -487.333)" fill-rule="evenodd" fill="url(#linear-gradient-11)"/>
      </g>
    </g>
  </g>
</svg>
