<svg xmlns="http://www.w3.org/2000/svg" xmlns:xlink="http://www.w3.org/1999/xlink" width="310.058" height="333.133" viewBox="0 0 310.058 333.133">
  <defs>
    <linearGradient id="linear-gradient" y1="0.5" x2="1" y2="0.5" gradientUnits="objectBoundingBox">
      <stop offset="0" stop-color="#3baa36"/>
      <stop offset="0.114" stop-color="#39a638"/>
      <stop offset="0.243" stop-color="#359c3d"/>
      <stop offset="0.379" stop-color="#2f8c43"/>
      <stop offset="0.519" stop-color="#297748"/>
      <stop offset="0.664" stop-color="#245d4a"/>
      <stop offset="0.811" stop-color="#1f4046"/>
      <stop offset="0.958" stop-color="#1c223a"/>
      <stop offset="1" stop-color="#1a1b37"/>
    </linearGradient>
    <linearGradient id="linear-gradient-2" x1="0" y1="0.5" x2="1" y2="0.5" xlink:href="#linear-gradient"/>
    <linearGradient id="linear-gradient-5" x1="0" y1="0.5" x2="1" y2="0.5" xlink:href="#linear-gradient"/>
    <linearGradient id="linear-gradient-7" x1="0" y1="0.5" x2="1" y2="0.5" xlink:href="#linear-gradient"/>
    <linearGradient id="linear-gradient-8" x1="0" y1="0.5" x2="1" y2="0.5" xlink:href="#linear-gradient"/>
    <linearGradient id="linear-gradient-9" x1="0" y1="0.5" x2="1" y2="0.5" xlink:href="#linear-gradient"/>
    <linearGradient id="linear-gradient-10" x1="0" y1="0.5" x2="0.999" y2="0.5" xlink:href="#linear-gradient"/>
    <linearGradient id="linear-gradient-11" x1="0" y1="0.5" x2="0.999" y2="0.5" xlink:href="#linear-gradient"/>
  </defs>
  <g id="Instrinsic_Logo_Blue" data-name="Instrinsic Logo Blue" transform="translate(-1466.777 -41.421)">
    <g id="Group_4" data-name="Group 4" transform="translate(0 0)">
      <path id="Path_27" data-name="Path 27" d="M1158.273,529.112,1133.261,548.3q-20.7-26.948-49.7-40.856t-63.71-13.908a140.772,140.772,0,0,0-70.29,18.219q-32.346,18.228-50.135,48.946t-17.787,69.1q0,58.008,39.776,96.814t100.374,38.813q66.627,0,111.471-52.183l25.011,18.977a159.876,159.876,0,0,1-59.176,46.677q-35.482,16.5-79.245,16.5-83.239,0-131.311-55.414Q848.2,693.2,848.215,627q0-69.644,48.833-117.185t122.37-47.546q44.41,0,80.209,17.573A155.708,155.708,0,0,1,1158.273,529.112Z" transform="translate(618.562 -420.851)"/>
      <g id="Group_3" data-name="Group 3" transform="translate(1532.516 92.257)">
        <path id="Path_28" data-name="Path 28" d="M1020.828,714.234a4.179,4.179,0,0,0,.266.407c.976,1.353.946,3.269,3.205,2.741,9.836-2.254,17.871-6.249,24.51-15.038.191-.246.364-.5.531-.754A111.748,111.748,0,0,1,1020.828,714.234Zm68.241-173.526c-16.637-25.464-38.295-40.706-61.325-47.531,1.516,1.989,2.9,4.143,4.376,6.16a56.841,56.841,0,0,1,3.036,5.065c-3.419,1.389-4.772,6.262-8.129,7.791a6.289,6.289,0,0,1-5-.114c-9.44-3.558-16.138-1.083-19.65,8.851-.991,2.822-5.534,3.614-4.744,7.7.448,2.308.079,5.611,3.856,3.507.128-.066.265-.139.407-.227.946-.576,1.813-1.28,2.466.2.52,1.188.942,2.5-.923,2.957-3.306.818-3.173,2.642-1.76,5.145a1.519,1.519,0,0,1-.026.981,3.071,3.071,0,0,1-.486,1.21c-4.134-.432-4.873,4.237-7.971,5.256-.933.842-1.736,2.2-2.794,2.426-4.183.9-5.384,2.038-2.745,6.417a6.243,6.243,0,0,1,.769,1.8h.009a2.958,2.958,0,0,1-.664,2.849c-.981,1.019-2.845,1.466-5.28,1.085-2.6-.411-6.173-.9-6.085,2.257.1,3.837-5.215,8.275-.15,11.263.227.143.454.282.649.422,1.98,1.338,2.347,2.614,1.94,3.738a6.138,6.138,0,0,1-2.173,2.484c-3.017,2.259-5.521,4.235-5.729,8.384-.06,1.111-1.67,2.614-2.907,3.087-4.86,1.865-7.515,5.845-10.1,9.9-1.876,2.935-3.672,5.744-2.411,9.713.561,1.76-.206,4.26-1.034,6.136-2.453,5.483-1.353,9.966,2.73,14.254,3.7,3.9,5.476,9.32,10.116,12.666a10.776,10.776,0,0,0,7.54,2.015,89.057,89.057,0,0,0,19.061-2.361c2-.524,4.308-.4,5.421,2.119.462,1.045,1.381,1.95,2.453,1.708a10.227,10.227,0,0,1,5-.231c3.107.908,1.974,4.7.929,7.986-.088.278-.167.55-.253.818-.9,2.869-.038,4.49,1.745,6.083a20.576,20.576,0,0,1,4.826,6.344,29.354,29.354,0,0,1,2.282,6.7,7.1,7.1,0,0,1-1.482,6.84,12.866,12.866,0,0,0-2.254,4.145c-.934,2.946-.432,5.96,1.351,9.339,2.717,5.153,3.471,11.189,6.875,16.2a4.165,4.165,0,0,0,.266.407c.976,1.353.946,3.269,3.205,2.741,9.836-2.254,17.871-6.249,24.51-15.038.191-.246.364-.5.531-.754,4.571-6.479,6.842-15,14.991-18.969,4.173-2.015,4.3-7.832,3.19-10.936-4.34-12.128,3.395-19.795,9.168-28.139a41,41,0,0,0,7.812-23.614c-3.306-.458-5.22,2.154-7.722,3.481-1.257.689-2.46,2.231-3.864.843a3.211,3.211,0,0,1-.381-.447c-1.25-1.708-.357-2.742.841-3.7.163-.139.357-.278.531-.422,6.778-5.149,11.154-12.077,14.584-19.718,2.908-6.457,1.85-10.694-3.661-13.92-4.464,3.661-6.622,4.006-10.334.345-.625-.612-1.28-1.327-2-2.169-1.15-1.329-3.025-3.139-1.188-4.965,1.875-1.846,3.139.334,3.9,1.595,1.542,2.567,3.867,2.182,6.1,2.079a7.228,7.228,0,0,1,2.537.216,3.466,3.466,0,0,1,.946.447c2.847-1.263,6.292-1.252,8.461-3.982.689-.865,1.531-1.55,2.64-.557,3.406,3.087,7.626,4.59,10.4,9.183.486.807.944,1.623,1.366,2.423A121.283,121.283,0,0,0,1089.069,540.708ZM1070.521,619c.088.508.154,1,.191,1.465-.443-.253-.88-.52-1.3-.8a23.2,23.2,0,0,1-3.507-2.792c-7.489-7.224-9.529-18.119-17.261-25.336,6.112.392,16.239,12.347,20.311,22.3A25.236,25.236,0,0,1,1070.521,619Zm-36.6-67.232c3.931,3.214,6.494,1.454,8.814-1.327.206-.308.422-.612.638-.919.09.308.184.612.266.9-.1,3.3,1.995,4.43,4.712,5.552a.64.64,0,0,0,.18.062c1.681.612,4.976.818,3.944,3.6a3.471,3.471,0,0,1-.884,1.349c-1.482,1.454-4.083,1.573-5.975,1.011a7.465,7.465,0,0,0-4.924.062c-2.933,1.1-4.894,3.98-7.166,5.907a1.586,1.586,0,0,0-.561,1.147c-.15,2.13,3.141,5.372,6.1,5.141,1.342-.1,2.361-1.162,4.044-1.058,2.509.154,6.541-3.676,6.4,2.2-.09,3.646,2.972,10.011-5.687,9.542a6.553,6.553,0,0,0-.664,0c-4.271.139-8.506,3.7-13.139.176-.818-.608-4.757.908-4.8,1.557a10.86,10.86,0,0,1-.115,1.238c-.45,3.395-1.991,3.152-3.6,2.308-1.154-.627-2.329-1.557-3.147-1.672-2.308-.345-3.943-4.006-7.069-1.619-.972-1.938-4.361-1.976-3.511-5.59.82-3.481-.008-5.472-5.048-4.567-4.252.769-8.626.807-12.784,1.965a20.148,20.148,0,0,0-3.813,1.43c-2.272,1.135-3.941-.114-6.314-1.723,9.694.2,11.431-8.2,15.753-13.648,2.25-2.807,5.282-.114,7.5-2.207,3-2.833,3.725-.231,4.734,1.7a7.706,7.706,0,0,0,.486.792c1.835,2.515,5.84,2.385,6.874,6.479a10.01,10.01,0,0,1,.972-1.927c.777-1.287,1.25-2.319-1.148-3.318-1.25-.523-2.147-1.991-3.113-3.1-1.368-1.58-4.9-2.972-2.308-5.344,1.492-1.364,2.878,2.349,4.479,2.91,5.513,1.9,7.422,6.913,10.321,11.032h.011a3.6,3.6,0,0,0,.321.473c.893,1.227,1.734,1.965,3.049,1.25.97-.509,1.021-1.349.522-2.257a2.87,2.87,0,0,0-.257-.407c-1.76-2.449-1.184-3.625.049-4.149a7.528,7.528,0,0,1,3.051-.419c2.756.1,3.522-2.169,2.849-2.961a5.457,5.457,0,0,1-1.381-2.961C1032.259,557.635,1034.188,554.962,1033.918,551.768Zm-28.258-14.582a11.8,11.8,0,0,0,2.115-.842,5.363,5.363,0,0,0,3.113-3.5c.407-1.623-.011-3.588-1.1-5.871a4.005,4.005,0,0,1,.191-3.918c.612-1.173,1.618-2.423,2.695-4.031.19,1.392.278,2.668.42,3.819.334,2.742.9,4.783,3.395,6.044a3.627,3.627,0,0,1,1.212,4.849,14.923,14.923,0,0,1-3.944,5.014,8.937,8.937,0,0,1-4.614,1.9,11.423,11.423,0,0,1-4.952-.612C1001.12,539,1004.591,537.52,1005.661,537.186Zm63.4,27.006c-1.991.349-4.592-.088-4.757-2-.422-4.823-4.021-7.232-6.93-9.91-2.46-2.261-1.107-4.083-.672-6.179a2.535,2.535,0,0,1,2.65-2.257c1.813.257,1.891,1.342,1.315,3.192-1.225,3.877,2.91,3.864,4.732,5.267,3.214,2.488,3.852,6.38,6.16,9.02A2.993,2.993,0,0,1,1069.064,564.192ZM935.509,508.318c-3.344.728-4.95,4.8-8.423,5.254a111.757,111.757,0,0,0-23.306,25.375,36.428,36.428,0,0,1,6.575-3.661c1.03-.447,1.413.051,2.661,1.8,1.128,1.58,3.291,1.338,4.519.828,2.638-1.111-.37-1.4-.535-2.119-.715-3.4,2.805-4.772,4.006-7.348.97-2.077,1.848,1.146,3.094,1.542,4.571,1.43,8.731.2,8.51-4.541-.191-4.3,5.335-7.168,2.2-11.75-.188-.281,1.481-1.837,2.3-2.792C936.567,510.039,936.031,509.172,935.509,508.318Zm-35.745,133.86c-1.978-2.077-3.346-3.71-3.612-6.707-.486-5.26-1.518-10.474-6-14.2-.889-.741-1.278-2.13-1.824-3.25-2.015-4.134-2.909-8.587-5.016-12.824-.062,1.738-.075,3.5-.062,5.26.233,23.871,7.489,45.823,20.067,66.146a104.471,104.471,0,0,0,7.427,10.486,14.677,14.677,0,0,1,1.595-.4c3.927-.751,3.254-4.577,3.021-7.375-.355-4.3-.291-8.009,2.7-11.812,2.244-2.833,1.557-6.607-1.135-9.874C911.957,651.607,905.093,647.792,899.764,642.178Z" transform="translate(-883.249 -486.02)" fill-rule="evenodd" fill="url(#linear-gradient)"/>
        <path id="Path_29" data-name="Path 29" d="M930.46,495.036c-.28.306-.561.6-.841.906-2.817,3.034-5.654,6.07-8.474,9.108a2.582,2.582,0,0,0-1.353-2.5,3.1,3.1,0,0,0-.049-2.68,2.974,2.974,0,0,0-1.109-1.1c-.867-6.249,4.489-5,7.678-6.352C926.865,494.63,929.723,493.15,930.46,495.036Z" transform="translate(-852.316 -486.684)" fill-rule="evenodd" fill="url(#linear-gradient-2)"/>
        <path id="Path_30" data-name="Path 30" d="M934.683,492.5a5.04,5.04,0,0,0-.443,2.2c-.114,1.848-.216,3.714-3.672,2.818.047-.664.1-1.34.137-2-.445-.6-.908-1.2-1.353-1.8a1.682,1.682,0,0,0,.229-1.212c.214-3.6.244-3.625,2.58-2.426C931.943,491.99,934.7,490.787,934.683,492.5Z" transform="translate(-842.841 -489.363)" fill-rule="evenodd" fill="url(#linear-gradient)"/>
        <path id="Path_31" data-name="Path 31" d="M940.108,496.052c4.974,1.284,3-3.141,4.117-5.018,1.689.118,3.383.238,5.07.358.047.831.094,1.668.133,2.5.115.18.193.484.343.522,9.566,2.531,9.356,2.374,3.09,10.891-4.76,6.472-11.233,9.563-18.759,10.536-4.684.608-8.273,2.723-11.7,5.6-.861.726-1.816,2.385-3.07.968a4,4,0,0,1-.715-3.449c.976-2.295,2-5,3.864-6.414C928.962,507.652,935.184,502.572,940.108,496.052Z" transform="translate(-852.379 -487.899)" fill-rule="evenodd" fill="url(#linear-gradient)"/>
        <path id="Path_32" data-name="Path 32" d="M982.35,611.982c-.555-10.778,7.089-17.254,12.968-24.679A42.6,42.6,0,0,1,982.35,611.982Z" transform="translate(-796.415 -403.522)" fill-rule="evenodd" fill="url(#linear-gradient-5)"/>
        <path id="Path_33" data-name="Path 33" d="M946.013,529.28c-.9-1.088-2-.261-2.854-.088-5.841,1.2-7.975-.15-4.115-5.75,1.766-2.561-2.036-3.134-1.7-5.284.231-1.462-.039-3.327,1.437-3.864,2.393-.861,2.154,1.891,2.293,2.777.683,4.5,4.858,7.568,4.817,12.274C945.906,529.339,946.013,529.28,946.013,529.28Z" transform="translate(-836.054 -467.656)" fill-rule="evenodd" fill="url(#linear-gradient-5)"/>
        <path id="Path_34" data-name="Path 34" d="M915.442,501.733c1.344-3.552,5.021-2.61,7.53-3.914a2.586,2.586,0,0,1,1.355,2.5c-1.175,4.515-6.211,2.077-8.893,4.761C914.351,506.162,915.258,502.987,915.442,501.733Z" transform="translate(-855.497 -481.952)" fill-rule="evenodd" fill="url(#linear-gradient-7)"/>
        <path id="Path_35" data-name="Path 35" d="M935.051,506.178c1.068.469,3.342-1.1,3.359,1.184.022,2.811-2.648,2.8-4.641,2.9-1.308.058-3.068.019-2.948-2.188C931,504.794,933.383,506.373,935.051,506.178Z" transform="translate(-841.558 -474.812)" fill-rule="evenodd" fill="url(#linear-gradient-8)"/>
        <path id="Path_36" data-name="Path 36" d="M907.32,520.828c-.979-1.546-4.346-2.2-2.3-5.087.766-1.081,2.749-1.308,4.181-1.923C909.279,516.276,910.183,518.914,907.32,520.828Z" transform="translate(-864.734 -467.929)" fill-rule="evenodd" fill="url(#linear-gradient-9)"/>
        <path id="Path_37" data-name="Path 37" d="M935.031,493.725c-.039-.831-.086-1.668-.133-2.5C936.228,491.988,938.022,492.727,935.031,493.725Z" transform="translate(-837.98 -487.73)" fill-rule="evenodd" fill="url(#linear-gradient-10)"/>
        <path id="Path_38" data-name="Path 38" d="M929.821,491.681c.452.6.9,1.2,1.351,1.8L928.866,493C928.68,492.189,929.1,491.824,929.821,491.681Z" transform="translate(-843.306 -487.332)" fill-rule="evenodd" fill="url(#linear-gradient-11)"/>
      </g>
    </g>
  </g>
</svg>
